<?xml version="1.0" encoding="iso-8859-1"?>
<!-- Generator: Adobe Illustrator 18.0.0, SVG Export Plug-In . SVG Version: 6.00 Build 0)  -->
<!DOCTYPE svg PUBLIC "-//W3C//DTD SVG 1.1//EN" "http://www.w3.org/Graphics/SVG/1.1/DTD/svg11.dtd">
<svg version="1.1" id="Capa_1" xmlns="http://www.w3.org/2000/svg" xmlns:xlink="http://www.w3.org/1999/xlink" x="0px" y="0px"
	 viewBox="0 0 405 405" style="enable-background:new 0 0 405 405;" xml:space="preserve">
<g>
	<path d="M72.5,211.725c-4.142,0-7.5,3.358-7.5,7.5s3.358,7.5,7.5,7.5c17.92,0,32.5,14.58,32.5,32.5c0,4.142,3.358,7.5,7.5,7.5
		s7.5-3.358,7.5-7.5C120,233.034,98.691,211.725,72.5,211.725z"/>
	<path d="M202.5,211.725c-4.142,0-7.5,3.358-7.5,7.5s3.358,7.5,7.5,7.5c17.92,0,32.5,14.58,32.5,32.5c0,4.142,3.357,7.5,7.5,7.5
		s7.5-3.358,7.5-7.5C250,233.034,228.692,211.725,202.5,211.725z"/>
	<path d="M332.5,186.725c-1.808,0-3.595,0.089-5.371,0.22c8.106-11.703,12.871-25.888,12.871-41.17c0-39.977-32.523-72.5-72.5-72.5
		c-28.469,0-53.145,16.501-65.001,40.434c-11.855-23.933-36.531-40.434-65-40.434c-39.977,0-72.5,32.523-72.5,72.5
		c0,15.282,4.765,29.467,12.871,41.17c-1.776-0.131-3.562-0.22-5.371-0.22c-39.977,0-72.5,32.523-72.5,72.5s32.523,72.5,72.5,72.5
		c28.468,0,53.145-16.501,65-40.434c11.855,23.933,36.532,40.434,65,40.434c28.469,0,53.145-16.501,65-40.434
		c11.855,23.933,36.532,40.434,65,40.434c39.977,0,72.5-32.523,72.5-72.5S372.477,186.725,332.5,186.725z M267.5,88.275
		c31.706,0,57.5,25.794,57.5,57.5s-25.794,57.5-57.5,57.5S210,177.481,210,145.775S235.794,88.275,267.5,88.275z M272.871,218.055
		c-2.002,2.89-3.799,5.931-5.371,9.104c-1.572-3.173-3.369-6.214-5.371-9.104c1.775,0.131,3.562,0.22,5.371,0.22
		S271.096,218.186,272.871,218.055z M207.871,186.945c-1.776-0.131-3.562-0.22-5.371-0.22s-3.595,0.089-5.371,0.22
		c2.002-2.891,3.799-5.931,5.371-9.104C204.072,181.014,205.869,184.055,207.871,186.945z M137.5,88.275
		c31.706,0,57.5,25.794,57.5,57.5s-25.794,57.5-57.5,57.5S80,177.481,80,145.775S105.794,88.275,137.5,88.275z M142.871,218.055
		c-2.002,2.89-3.799,5.931-5.371,9.104c-1.572-3.173-3.369-6.213-5.371-9.104c1.776,0.131,3.562,0.22,5.371,0.22
		S141.095,218.186,142.871,218.055z M72.5,316.725c-31.706,0-57.5-25.794-57.5-57.5s25.794-57.5,57.5-57.5s57.5,25.794,57.5,57.5
		S104.206,316.725,72.5,316.725z M202.5,316.725c-31.706,0-57.5-25.794-57.5-57.5s25.794-57.5,57.5-57.5s57.5,25.794,57.5,57.5
		S234.206,316.725,202.5,316.725z M332.5,316.725c-31.706,0-57.5-25.794-57.5-57.5s25.794-57.5,57.5-57.5s57.5,25.794,57.5,57.5
		S364.207,316.725,332.5,316.725z"/>
	<path d="M332.5,211.725c-4.143,0-7.5,3.358-7.5,7.5s3.357,7.5,7.5,7.5c17.921,0,32.5,14.58,32.5,32.5c0,4.142,3.357,7.5,7.5,7.5
		s7.5-3.358,7.5-7.5C380,233.034,358.692,211.725,332.5,211.725z"/>
	<path d="M137.5,113.275c17.92,0,32.5,14.58,32.5,32.5c0,4.142,3.358,7.5,7.5,7.5s7.5-3.358,7.5-7.5c0-26.191-21.309-47.5-47.5-47.5
		c-4.142,0-7.5,3.358-7.5,7.5S133.358,113.275,137.5,113.275z"/>
	<path d="M288.603,121.082c7.243,6.201,11.397,15.201,11.397,24.693c0,4.142,3.357,7.5,7.5,7.5s7.5-3.358,7.5-7.5
		c0-13.88-6.065-27.033-16.642-36.088c-3.147-2.694-7.881-2.327-10.575,0.82C285.09,113.654,285.457,118.388,288.603,121.082z"/>
	<path d="M267.5,113.275c1.907,0,3.818,0.167,5.679,0.496c0.442,0.078,0.882,0.116,1.315,0.116c3.569,0,6.733-2.558,7.377-6.195
		c0.722-4.079-2-7.97-6.079-8.692c-2.721-0.481-5.511-0.726-8.292-0.726c-4.143,0-7.5,3.358-7.5,7.5S263.358,113.275,267.5,113.275z
		"/>
</g>
<g>
</g>
<g>
</g>
<g>
</g>
<g>
</g>
<g>
</g>
<g>
</g>
<g>
</g>
<g>
</g>
<g>
</g>
<g>
</g>
<g>
</g>
<g>
</g>
<g>
</g>
<g>
</g>
<g>
</g>
</svg>
